<?xml version="1.0" encoding="UTF-8"?>
<svg width="200px" height="200px" viewBox="0 0 200 200" version="1.1" xmlns="http://www.w3.org/2000/svg" xmlns:xlink="http://www.w3.org/1999/xlink">
    <title>编组 6</title>
    <g id="扫描管理1040" stroke="none" stroke-width="1" fill="none" fill-rule="evenodd">
        <g id="扫描_扫描仪1" transform="translate(-279, -269)">
            <g id="编组-41备份" transform="translate(30, 25)">
                <g id="编组-6" transform="translate(249, 244)">
                    <rect id="矩形" x="0" y="0" width="200" height="200"></rect>
                    <g id="编组-8" transform="translate(55, 46)" fill="#B6B6B6" fill-rule="nonzero">
                        <path d="M66.5691057,0 L89,21.2957746 L89,100 C89,104.418278 85.418278,108 81,108 L8,108 C3.581722,108 0,104.418278 0,100 L0,8 C0,3.581722 3.581722,0 8,0 L66.5691057,0 Z M64.9727428,4 L8,4 C5.790861,4 4,5.790861 4,8 L4,100 C4,102.209139 5.790861,104 8,104 L81,104 C83.209139,104 85,102.209139 85,100 L85,23.0137741 L64.9727428,4 Z M25,86 C26.1045695,86 27,86.8954305 27,88 C27,89.1045695 26.1045695,90 25,90 L13,90 C11.8954305,90 11,89.1045695 11,88 C11,86.8954305 11.8954305,86 13,86 L25,86 Z M67,86 C68.1045695,86 69,86.8954305 69,88 C69,89.1045695 68.1045695,90 67,90 L35,90 C33.8954305,90 33,89.1045695 33,88 C33,86.8954305 33.8954305,86 35,86 L67,86 Z M35,74 C36.1045695,74 37,74.8954305 37,76 C37,77.1045695 36.1045695,78 35,78 L14,78 C12.8954305,78 12,77.1045695 12,76 C12,74.8954305 12.8954305,74 14,74 L35,74 Z M74,74 C75.1045695,74 76,74.8954305 76,76 C76,77.1045695 75.1045695,78 74,78 L44,78 C42.8954305,78 42,77.1045695 42,76 C42,74.8954305 42.8954305,74 44,74 L74,74 Z M54,62 C55.1045695,62 56,62.8954305 56,64 C56,65.1045695 55.1045695,66 54,66 L14,66 C12.8954305,66 12,65.1045695 12,64 C12,62.8954305 12.8954305,62 14,62 L54,62 Z M74,50 C75.1045695,50 76,50.8954305 76,52 C76,53.1045695 75.1045695,54 74,54 L13,54 C11.8954305,54 11,53.1045695 11,52 C11,50.8954305 11.8954305,50 13,50 L74,50 Z M38,38 C39.1045695,38 40,38.8954305 40,40 C40,41.1045695 39.1045695,42 38,42 L14,42 C12.8954305,42 12,41.1045695 12,40 C12,38.8954305 12.8954305,38 14,38 L38,38 Z M74,38 C75.1045695,38 76,38.8954305 76,40 C76,41.1045695 75.1045695,42 74,42 L49,42 C47.8954305,42 47,41.1045695 47,40 C47,38.8954305 47.8954305,38 49,38 L74,38 Z M55,26 C56.1045695,26 57,26.8954305 57,28 C57,29.1045695 56.1045695,30 55,30 L13,30 C11.8954305,30 11,29.1045695 11,28 C11,26.8954305 11.8954305,26 13,26 L55,26 Z" id="形状结合"></path>
                    </g>
                    <path d="M42,22 C43.1045695,22 44,22.8954305 44,24 C44,25.1045695 43.1045695,26 42,26 L22,26 L22,46 C22,47.1045695 21.1045695,48 20,48 C18.8954305,48 18,47.1045695 18,46 L18,24 C18,22.8954305 18.8954305,22 20,22 L42,22 Z M159,22 C157.895431,22 157,22.8954305 157,24 C157,25.1045695 157.895431,26 159,26 L179,26 L179,46 C179,47.1045695 179.895431,48 181,48 C182.104569,48 183,47.1045695 183,46 L183,24 C183,22.8954305 182.104569,22 181,22 L159,22 Z M42,178 C43.1045695,178 44,177.104569 44,176 C44,174.895431 43.1045695,174 42,174 L22,174 L22,154 C22,152.895431 21.1045695,152 20,152 C18.8954305,152 18,152.895431 18,154 L18,176 C18,177.104569 18.8954305,178 20,178 L42,178 Z M159,178 C157.895431,178 157,177.104569 157,176 C157,174.895431 157.895431,174 159,174 L179,174 L179,154 C179,152.895431 179.895431,152 181,152 C182.104569,152 183,152.895431 183,154 L183,176 C183,177.104569 182.104569,178 181,178 L159,178 Z" id="形状结合" fill="#B6B6B6"></path>
                </g>
            </g>
        </g>
    </g>
</svg>