<?xml version="1.0" encoding="UTF-8"?>
<svg width="40px" height="40px" viewBox="0 0 40 40" version="1.1" xmlns="http://www.w3.org/2000/svg" xmlns:xlink="http://www.w3.org/1999/xlink">
    <title>编组 9</title>
    <g id="扫描管理1040" stroke="none" stroke-width="1" fill="none" fill-rule="evenodd">
        <g id="扫描_拍摄扫描_定时拍摄1备份-2" transform="translate(-569, -705)">
            <g id="编组-41备份" transform="translate(30, 25)">
                <g id="编组-45" transform="translate(100, 670)">
                    <g id="button/photograph" transform="translate(420, 0)">
                        <g id="编组-9" transform="translate(19, 10)">
                            <rect id="矩形" x="0" y="0" width="40" height="40"></rect>
                            <path d="M6,18 L35,18 C35.5522847,18 36,18.4477153 36,19 C36,19.5522847 35.5522847,20 35,20 L6,20 C5.44771525,20 5,19.5522847 5,19 C5,18.4477153 5.44771525,18 6,18 Z M15,7 C15.5522847,7 16,7.44771525 16,8 C16,8.55228475 15.5522847,9 15,9 L9,9 L9,15 C9,15.5522847 8.55228475,16 8,16 C7.44771525,16 7,15.5522847 7,15 L7,8 C7,7.44771525 7.44771525,7 8,7 L15,7 Z M25,7 C24.4477153,7 24,7.44771525 24,8 C24,8.55228475 24.4477153,9 25,9 L31,9 L31,15 C31,15.5522847 31.4477153,16 32,16 C32.5522847,16 33,15.5522847 33,15 L33,8 C33,7.44771525 32.5522847,7 32,7 L25,7 Z M15,32 C15.5522847,32 16,31.5522847 16,31 C16,30.4477153 15.5522847,30 15,30 L9,30 L9,24 C9,23.4477153 8.55228475,23 8,23 C7.44771525,23 7,23.4477153 7,24 L7,31 C7,31.5522847 7.44771525,32 8,32 L15,32 Z M25,32 C24.4477153,32 24,31.5522847 24,31 C24,30.4477153 24.4477153,30 25,30 L31,30 L31,24 C31,23.4477153 31.4477153,23 32,23 C32.5522847,23 33,23.4477153 33,24 L33,31 C33,31.5522847 32.5522847,32 32,32 L25,32 Z" id="形状结合" fill="#FFFFFF"></path>
                        </g>
                    </g>
                </g>
            </g>
        </g>
    </g>
</svg>