<?xml version="1.0" encoding="UTF-8"?>
<svg width="64px" height="64px" viewBox="0 0 64 64" version="1.1" xmlns="http://www.w3.org/2000/svg" xmlns:xlink="http://www.w3.org/1999/xlink">
    <title>高拍仪备份</title>
    <defs>
        <filter x="-9.1%" y="-8.0%" width="116.7%" height="118.8%" filterUnits="objectBoundingBox" id="filter-1">
            <feOffset dx="0" dy="1" in="SourceAlpha" result="shadowOffsetOuter1"></feOffset>
            <feGaussianBlur stdDeviation="1.5" in="shadowOffsetOuter1" result="shadowBlurOuter1"></feGaussianBlur>
            <feColorMatrix values="0 0 0 0 0   0 0 0 0 0   0 0 0 0 0  0 0 0 0.195066652 0" type="matrix" in="shadowBlurOuter1" result="shadowMatrixOuter1"></feColorMatrix>
            <feMerge>
                <feMergeNode in="shadowMatrixOuter1"></feMergeNode>
                <feMergeNode in="SourceGraphic"></feMergeNode>
            </feMerge>
        </filter>
        <linearGradient x1="50%" y1="0%" x2="50%" y2="100%" id="linearGradient-2">
            <stop stop-color="#414141" offset="0%"></stop>
            <stop stop-color="#242424" offset="100%"></stop>
        </linearGradient>
        <linearGradient x1="50%" y1="-57.5356966%" x2="50%" y2="119.408128%" id="linearGradient-3">
            <stop stop-color="#A3A3A3" offset="0%"></stop>
            <stop stop-color="#383838" offset="100%"></stop>
        </linearGradient>
        <linearGradient x1="0%" y1="50%" x2="100%" y2="50%" id="linearGradient-4">
            <stop stop-color="#414141" offset="0%"></stop>
            <stop stop-color="#242424" offset="100%"></stop>
        </linearGradient>
        <linearGradient x1="50%" y1="2.02687937%" x2="50%" y2="100%" id="linearGradient-5">
            <stop stop-color="#0070FF" stop-opacity="0.354922421" offset="0%"></stop>
            <stop stop-color="#C6DDFF" stop-opacity="0" offset="100%"></stop>
        </linearGradient>
        <linearGradient x1="50%" y1="2.02687937%" x2="50%" y2="100%" id="linearGradient-6">
            <stop stop-color="#0070FF" stop-opacity="0.354922421" offset="0%"></stop>
            <stop stop-color="#C6DDFF" stop-opacity="0" offset="100%"></stop>
        </linearGradient>
        <linearGradient x1="65.4463988%" y1="32.3682276%" x2="65.4463988%" y2="100%" id="linearGradient-7">
            <stop stop-color="#414141" offset="0%"></stop>
            <stop stop-color="#242424" offset="100%"></stop>
        </linearGradient>
        <linearGradient x1="50%" y1="0%" x2="50%" y2="100%" id="linearGradient-8">
            <stop stop-color="#414141" offset="0%"></stop>
            <stop stop-color="#242424" offset="100%"></stop>
        </linearGradient>
        <linearGradient x1="50%" y1="-6.99637277%" x2="50%" y2="135.759626%" id="linearGradient-9">
            <stop stop-color="#B2B2B2" offset="0%"></stop>
            <stop stop-color="#F3F3F3" offset="100%"></stop>
        </linearGradient>
        <polygon id="path-10" points="23 41 48 41 50 46 22 46"></polygon>
        <filter x="-7.1%" y="-20.0%" width="114.3%" height="180.0%" filterUnits="objectBoundingBox" id="filter-11">
            <feOffset dx="0" dy="1" in="SourceAlpha" result="shadowOffsetOuter1"></feOffset>
            <feGaussianBlur stdDeviation="0.5" in="shadowOffsetOuter1" result="shadowBlurOuter1"></feGaussianBlur>
            <feColorMatrix values="0 0 0 0 0   0 0 0 0 0   0 0 0 0 0  0 0 0 0.184331294 0" type="matrix" in="shadowBlurOuter1"></feColorMatrix>
        </filter>
    </defs>
    <g id="扫描管理1040" stroke="none" stroke-width="1" fill="none" fill-rule="evenodd">
        <g id="设置" transform="translate(-70, -254)">
            <g id="编组-41备份" transform="translate(30, 25)">
                <g id="编组-9" transform="translate(20, 216)">
                    <g id="高拍仪备份" transform="translate(25, 20)">
                        <g id="编组" filter="url(#filter-1)" transform="translate(0, -0)">
                            <path d="M48.6166725,41.58 C49.7625243,41.58 50.9956663,42.2381414 51.3709723,43.05 L53.446,46.775 L54.18,46.7757697 L54.18,48.3048636 C54.1876987,48.9351448 53.4207894,49.4 52.2531917,49.4 L1.92680828,49.4 C0.759210561,49.4 -0.00769872021,48.9351448 5.83024918e-05,48.3048633 L-1.13686838e-13,46.7757697 L0.733,46.775 L2.80902774,43.05 C3.18433371,42.2381414 4.41747571,41.58 5.56332749,41.58 L48.6166725,41.58 Z" id="形状结合" fill="url(#linearGradient-2)"></path>
                            <path d="M5.56332749,39.06 L48.6166725,39.06 C49.7625243,39.06 50.9956663,39.7181414 51.3709723,40.53 L54.0891785,46.41 C54.4644845,47.2218586 53.6424852,47.88 52.2531917,47.88 L1.92680828,47.88 C0.537514791,47.88 -0.284484507,47.2218586 0.0908214612,46.41 L2.80902774,40.53 C3.18433371,39.7181414 4.41747571,39.06 5.56332749,39.06 Z" id="矩形备份-2" fill="url(#linearGradient-3)"></path>
                            <path d="M8.48,2 C9.87175757,2 11,3.12824243 11,4.52 L11,43.4673462 L10.998,43.467 L11,43.5 C11,44.2939093 9.76645121,44.9437633 8.20539842,44.9965395 L8,45 C6.34314575,45 5,44.3284271 5,43.5 C5,43.4889409 5.00023936,43.4779098 5.00071564,43.4669078 L5,4.52 C5,3.12824243 6.12824243,2 7.52,2 L8.48,2 Z" id="形状结合" fill="url(#linearGradient-4)"></path>
                            <polygon id="矩形备份-9" fill="url(#linearGradient-5)" points="32 5.46818182 52.8640674 41.4681818 11.1359326 41.4681818"></polygon>
                            <polygon id="矩形备份-10" fill="url(#linearGradient-6)" points="32 5.46818182 43.0438372 37.4681818 20.9561628 37.4681818"></polygon>
                            <rect id="矩形备份-3" fill="url(#linearGradient-7)" x="30" y="2" width="4" height="5" rx="1.26"></rect>
                            <path d="M4.26,0 L35.74,0 C36.4358788,-1.27830859e-16 37,0.564121215 37,1.26 L37,3.74 C37,4.43587878 36.4358788,5 35.74,5 L4.26,5 C3.56412122,5 3,4.43587878 3,3.74 L3,1.26 C3,0.564121215 3.56412122,1.27830859e-16 4.26,0 Z" id="矩形" fill="url(#linearGradient-8)"></path>
                        </g>
                        <g id="矩形备份-9">
                            <use fill="black" fill-opacity="1" filter="url(#filter-11)" xlink:href="#path-10"></use>
                            <use fill="url(#linearGradient-9)" fill-rule="evenodd" xlink:href="#path-10"></use>
                        </g>
                    </g>
                </g>
            </g>
        </g>
    </g>
</svg>