<?xml version="1.0" encoding="UTF-8"?>
<svg width="16px" height="16px" viewBox="0 0 16 16" version="1.1" xmlns="http://www.w3.org/2000/svg" xmlns:xlink="http://www.w3.org/1999/xlink">
    <title>button- scanner</title>
    <g id="v20" stroke="none" stroke-width="1" fill="none" fill-rule="evenodd">
        <g id="button--scanner" fill="#FFFFFF" fill-rule="nonzero">
            <g id="icon-scaner" transform="translate(0, 2)">
                <path d="M10.4973142,2.22044605e-16 C10.9195055,1.44489316e-16 11.2962123,0.265148039 11.4386682,0.662579552 L11.559,1 L14,1 C15.1045695,1 16,1.8954305 16,3 L16,10 C16,11.1045695 15.1045695,12 14,12 L2,12 C0.8954305,12 1.3527075e-16,11.1045695 0,10 L0,3 C-1.3527075e-16,1.8954305 0.8954305,1 2,1 L4.415,1 L4.53571605,0.663602668 C4.67787416,0.265641253 5.0548463,2.99673109e-16 5.47743619,2.22044605e-16 L10.4973142,2.22044605e-16 Z M13,8 C12.4477153,8 12,8.44771525 12,9 C12,9.55228475 12.4477153,10 13,10 C13.5522847,10 14,9.55228475 14,9 C14,8.44771525 13.5522847,8 13,8 Z M8,3 C6.34314575,3 5,4.34314575 5,6 C5,7.65685425 6.34314575,9 8,9 C9.65685425,9 11,7.65685425 11,6 C11,4.34314575 9.65685425,3 8,3 Z M8,4 C9.1045695,4 10,4.8954305 10,6 C10,7.1045695 9.1045695,8 8,8 C6.8954305,8 6,7.1045695 6,6 C6,4.8954305 6.8954305,4 8,4 Z" id="形状结合"></path>
            </g>
        </g>
    </g>
</svg>